<?xml version="1.0" encoding="UTF-8" standalone="no"?>
<svg
   height="85.943817"
   viewBox="0 0 88.503624 85.939107"
   width="88.502441"
   version="1.1"
   id="svg26"
   xml:space="preserve"
   sodipodi:docname="logo.svg"
   inkscape:version="1.4 (e7c3feb100, 2024-10-09)"
   inkscape:export-filename="logo.svg"
   inkscape:export-xdpi="96"
   inkscape:export-ydpi="96"
   xmlns:inkscape="http://www.inkscape.org/namespaces/inkscape"
   xmlns:sodipodi="http://sodipodi.sourceforge.net/DTD/sodipodi-0.dtd"
   xmlns:xlink="http://www.w3.org/1999/xlink"
   xmlns="http://www.w3.org/2000/svg"
   xmlns:svg="http://www.w3.org/2000/svg"><sodipodi:namedview
     id="namedview1"
     pagecolor="#ffffff"
     bordercolor="#000000"
     borderopacity="0.25"
     inkscape:showpageshadow="2"
     inkscape:pageopacity="0.0"
     inkscape:pagecheckerboard="0"
     inkscape:deskcolor="#d1d1d1"
     showgrid="false"
     inkscape:zoom="6.8242256"
     inkscape:cx="66.527695"
     inkscape:cy="47.551183"
     inkscape:window-width="2526"
     inkscape:window-height="1376"
     inkscape:window-x="0"
     inkscape:window-y="0"
     inkscape:window-maximized="1"
     inkscape:current-layer="svg26" /><defs
     id="defs26"><linearGradient
       id="linearGradient8"
       inkscape:collect="always"><stop
         style="stop-color:#ff5555;stop-opacity:1;"
         offset="0"
         id="stop8" /><stop
         style="stop-color:#ff9955;stop-opacity:1"
         offset="1"
         id="stop9" /></linearGradient><linearGradient
       inkscape:collect="always"
       xlink:href="#linearGradient8"
       id="linearGradient9"
       x1="27.251673"
       y1="42.895142"
       x2="0.2072372"
       y2="43.309616"
       gradientUnits="userSpaceOnUse" /></defs><radialGradient
     id="a"
     cx="-122.39"
     cy="442.72"
     gradientTransform="matrix(1,0,0,-1,421.29534,772.69031)"
     gradientUnits="userSpaceOnUse"
     r="29.58"><stop
       offset="0"
       stop-color="#fff"
       id="stop1" /><stop
       offset="1"
       stop-color="#007808"
       id="stop2" /></radialGradient><path
     id="path35-1"
     style="fill:url(#linearGradient9);stroke:none;fill-opacity:1"
     d="M 6.4302002e-6,-0.01291772 V 12.299742 H 12.177907 l -4.7070905,5.34187 v 49.60163 L 28.074607,42.983752 v 11.2853 l -8.93441,10.5362 21.03297,21.12679 V 7.9168222 L 19.396757,32.374182 v -9.76966 l 19.27955,-22.61743972 z m 0,0 V 12.299742 H 12.177907 l -4.7070905,5.34187 v 49.60163 L 28.074607,42.983752 v 11.2853 l -8.93441,10.5362 21.03297,21.12679 V 7.9168222 L 19.396757,32.374182 v -9.76966 l 19.27955,-22.61743972 z" /><path
     id="path35-1-4"
     style="fill:#ff9955;stroke:none"
     d="m 88.503637,85.932042 v -12.31266 h -12.1779 l 4.70709,-5.34187 v -49.60163 l -20.60379,24.25949 v -11.2853 l 8.93441,-10.5362 -21.03297,-21.12678972 V 78.002302 l 20.77641,-24.45736 v 9.76966 l -19.27955,22.61744 z m 0,0 v -12.31266 h -12.1779 l 4.70709,-5.34187 v -49.60163 l -20.60379,24.25949 v -11.2853 l 8.93441,-10.53621 -21.03297,-21.12677972 V 78.002302 l 20.77641,-24.45736 v 9.76966 l -19.27955,22.61744 z" /></svg>
